<svg xmlns="http://www.w3.org/2000/svg" version="1.1" xmlns:xlink="http://www.w3.org/1999/xlink" xmlns:svgjs="http://svgjs.com/svgjs" width="1440" height="560" preserveAspectRatio="none" viewBox="0 0 1440 560">
    <g mask="url(&quot;#SvgjsMask1009&quot;)" fill="none">
        <rect width="1440" height="560" x="0" y="0" fill="#0e2a47"></rect>
        <path d="M0 -121L104.79 -60.5L104.79 60.5L0 121L-104.79 60.5L-104.79 -60.5zM104.79 60.5L209.58 121L209.58 242L104.79 302.5L0 242L0 121zM0 242L104.79 302.5L104.79 423.5L0 484L-104.79 423.5L-104.79 302.5zM104.79 423.5L209.58 484L209.58 605L104.79 665.5L0 605L0 484zM209.58 -121L314.38 -60.5L314.38 60.5L209.58 121L104.79 60.5L104.79 -60.5zM314.38 60.5L419.17 121L419.17 242L314.38 302.5L209.58 242L209.58 121zM209.58 242L314.38 302.5L314.38 423.5L209.58 484L104.79 423.5L104.79 302.5zM314.38 423.5L419.17 484L419.17 605L314.38 665.5L209.58 605L209.58 484zM419.17 -121L523.96 -60.5L523.96 60.5L419.17 121L314.38 60.5L314.38 -60.5zM523.96 60.5L628.75 121L628.75 242L523.96 302.5L419.17 242L419.17 121zM419.17 242L523.96 302.5L523.96 423.5L419.17 484L314.38 423.5L314.38 302.5zM523.96 423.5L628.75 484L628.75 605L523.96 665.5L419.17 605L419.17 484zM628.75 -121L733.54 -60.5L733.54 60.5L628.75 121L523.96 60.5L523.96 -60.5zM733.54 60.5L838.34 121L838.34 242L733.54 302.5L628.75 242L628.75 121zM628.75 242L733.54 302.5L733.54 423.5L628.75 484L523.96 423.5L523.96 302.5zM733.54 423.5L838.34 484L838.34 605L733.54 665.5L628.75 605L628.75 484zM838.34 -121L943.13 -60.5L943.13 60.5L838.34 121L733.54 60.5L733.54 -60.5zM943.13 60.5L1047.92 121L1047.92 242L943.13 302.5L838.34 242L838.34 121zM838.34 242L943.13 302.5L943.13 423.5L838.34 484L733.54 423.5L733.54 302.5zM943.13 423.5L1047.92 484L1047.92 605L943.13 665.5L838.34 605L838.34 484zM1047.92 -121L1152.71 -60.5L1152.71 60.5L1047.92 121L943.13 60.5L943.13 -60.5zM1152.71 60.5L1257.5 121L1257.5 242L1152.71 302.5L1047.92 242L1047.92 121zM1047.92 242L1152.71 302.5L1152.71 423.5L1047.92 484L943.13 423.5L943.13 302.5zM1152.71 423.5L1257.5 484L1257.5 605L1152.71 665.5L1047.92 605L1047.92 484zM1257.5 -121L1362.3 -60.5L1362.3 60.5L1257.5 121L1152.71 60.5L1152.71 -60.5zM1362.3 60.5L1467.09 121L1467.09 242L1362.3 302.5L1257.5 242L1257.5 121zM1257.5 242L1362.3 302.5L1362.3 423.5L1257.5 484L1152.71 423.5L1152.71 302.5zM1362.3 423.5L1467.09 484L1467.09 605L1362.3 665.5L1257.5 605L1257.5 484z" stroke="#03305d" stroke-width="2"></path>
        <path d="M-12.1 -121 a12.1 12.1 0 1 0 24.2 0 a12.1 12.1 0 1 0 -24.2 0zM92.69 -60.5 a12.1 12.1 0 1 0 24.2 0 a12.1 12.1 0 1 0 -24.2 0zM92.69 60.5 a12.1 12.1 0 1 0 24.2 0 a12.1 12.1 0 1 0 -24.2 0zM-12.1 121 a12.1 12.1 0 1 0 24.2 0 a12.1 12.1 0 1 0 -24.2 0zM-116.89 60.5 a12.1 12.1 0 1 0 24.2 0 a12.1 12.1 0 1 0 -24.2 0zM-116.89 -60.5 a12.1 12.1 0 1 0 24.2 0 a12.1 12.1 0 1 0 -24.2 0zM197.48 121 a12.1 12.1 0 1 0 24.2 0 a12.1 12.1 0 1 0 -24.2 0zM197.48 242 a12.1 12.1 0 1 0 24.2 0 a12.1 12.1 0 1 0 -24.2 0zM92.69 302.5 a12.1 12.1 0 1 0 24.2 0 a12.1 12.1 0 1 0 -24.2 0zM-12.1 242 a12.1 12.1 0 1 0 24.2 0 a12.1 12.1 0 1 0 -24.2 0zM92.69 423.5 a12.1 12.1 0 1 0 24.2 0 a12.1 12.1 0 1 0 -24.2 0zM-12.1 484 a12.1 12.1 0 1 0 24.2 0 a12.1 12.1 0 1 0 -24.2 0zM-116.89 423.5 a12.1 12.1 0 1 0 24.2 0 a12.1 12.1 0 1 0 -24.2 0zM-116.89 302.5 a12.1 12.1 0 1 0 24.2 0 a12.1 12.1 0 1 0 -24.2 0zM197.48 484 a12.1 12.1 0 1 0 24.2 0 a12.1 12.1 0 1 0 -24.2 0zM197.48 605 a12.1 12.1 0 1 0 24.2 0 a12.1 12.1 0 1 0 -24.2 0zM92.69 665.5 a12.1 12.1 0 1 0 24.2 0 a12.1 12.1 0 1 0 -24.2 0zM-12.1 605 a12.1 12.1 0 1 0 24.2 0 a12.1 12.1 0 1 0 -24.2 0zM197.48 -121 a12.1 12.1 0 1 0 24.2 0 a12.1 12.1 0 1 0 -24.2 0zM302.28 -60.5 a12.1 12.1 0 1 0 24.2 0 a12.1 12.1 0 1 0 -24.2 0zM302.28 60.5 a12.1 12.1 0 1 0 24.2 0 a12.1 12.1 0 1 0 -24.2 0zM407.07 121 a12.1 12.1 0 1 0 24.2 0 a12.1 12.1 0 1 0 -24.2 0zM407.07 242 a12.1 12.1 0 1 0 24.2 0 a12.1 12.1 0 1 0 -24.2 0zM302.28 302.5 a12.1 12.1 0 1 0 24.2 0 a12.1 12.1 0 1 0 -24.2 0zM302.28 423.5 a12.1 12.1 0 1 0 24.2 0 a12.1 12.1 0 1 0 -24.2 0zM407.07 484 a12.1 12.1 0 1 0 24.2 0 a12.1 12.1 0 1 0 -24.2 0zM407.07 605 a12.1 12.1 0 1 0 24.2 0 a12.1 12.1 0 1 0 -24.2 0zM302.28 665.5 a12.1 12.1 0 1 0 24.2 0 a12.1 12.1 0 1 0 -24.2 0zM407.07 -121 a12.1 12.1 0 1 0 24.2 0 a12.1 12.1 0 1 0 -24.2 0zM511.86 -60.5 a12.1 12.1 0 1 0 24.2 0 a12.1 12.1 0 1 0 -24.2 0zM511.86 60.5 a12.1 12.1 0 1 0 24.2 0 a12.1 12.1 0 1 0 -24.2 0zM616.65 121 a12.1 12.1 0 1 0 24.2 0 a12.1 12.1 0 1 0 -24.2 0zM616.65 242 a12.1 12.1 0 1 0 24.2 0 a12.1 12.1 0 1 0 -24.2 0zM511.86 302.5 a12.1 12.1 0 1 0 24.2 0 a12.1 12.1 0 1 0 -24.2 0zM511.86 423.5 a12.1 12.1 0 1 0 24.2 0 a12.1 12.1 0 1 0 -24.2 0zM616.65 484 a12.1 12.1 0 1 0 24.2 0 a12.1 12.1 0 1 0 -24.2 0zM616.65 605 a12.1 12.1 0 1 0 24.2 0 a12.1 12.1 0 1 0 -24.2 0zM511.86 665.5 a12.1 12.1 0 1 0 24.2 0 a12.1 12.1 0 1 0 -24.2 0zM616.65 -121 a12.1 12.1 0 1 0 24.2 0 a12.1 12.1 0 1 0 -24.2 0zM721.44 -60.5 a12.1 12.1 0 1 0 24.2 0 a12.1 12.1 0 1 0 -24.2 0zM721.44 60.5 a12.1 12.1 0 1 0 24.2 0 a12.1 12.1 0 1 0 -24.2 0zM826.24 121 a12.1 12.1 0 1 0 24.2 0 a12.1 12.1 0 1 0 -24.2 0zM826.24 242 a12.1 12.1 0 1 0 24.2 0 a12.1 12.1 0 1 0 -24.2 0zM721.44 302.5 a12.1 12.1 0 1 0 24.2 0 a12.1 12.1 0 1 0 -24.2 0zM721.44 423.5 a12.1 12.1 0 1 0 24.2 0 a12.1 12.1 0 1 0 -24.2 0zM826.24 484 a12.1 12.1 0 1 0 24.2 0 a12.1 12.1 0 1 0 -24.2 0zM826.24 605 a12.1 12.1 0 1 0 24.2 0 a12.1 12.1 0 1 0 -24.2 0zM721.44 665.5 a12.1 12.1 0 1 0 24.2 0 a12.1 12.1 0 1 0 -24.2 0zM826.24 -121 a12.1 12.1 0 1 0 24.2 0 a12.1 12.1 0 1 0 -24.2 0zM931.03 -60.5 a12.1 12.1 0 1 0 24.2 0 a12.1 12.1 0 1 0 -24.2 0zM931.03 60.5 a12.1 12.1 0 1 0 24.2 0 a12.1 12.1 0 1 0 -24.2 0zM1035.82 121 a12.1 12.1 0 1 0 24.2 0 a12.1 12.1 0 1 0 -24.2 0zM1035.82 242 a12.1 12.1 0 1 0 24.2 0 a12.1 12.1 0 1 0 -24.2 0zM931.03 302.5 a12.1 12.1 0 1 0 24.2 0 a12.1 12.1 0 1 0 -24.2 0zM931.03 423.5 a12.1 12.1 0 1 0 24.2 0 a12.1 12.1 0 1 0 -24.2 0zM1035.82 484 a12.1 12.1 0 1 0 24.2 0 a12.1 12.1 0 1 0 -24.2 0zM1035.82 605 a12.1 12.1 0 1 0 24.2 0 a12.1 12.1 0 1 0 -24.2 0zM931.03 665.5 a12.1 12.1 0 1 0 24.2 0 a12.1 12.1 0 1 0 -24.2 0zM1035.82 -121 a12.1 12.1 0 1 0 24.2 0 a12.1 12.1 0 1 0 -24.2 0zM1140.61 -60.5 a12.1 12.1 0 1 0 24.2 0 a12.1 12.1 0 1 0 -24.2 0zM1140.61 60.5 a12.1 12.1 0 1 0 24.2 0 a12.1 12.1 0 1 0 -24.2 0zM1245.4 121 a12.1 12.1 0 1 0 24.2 0 a12.1 12.1 0 1 0 -24.2 0zM1245.4 242 a12.1 12.1 0 1 0 24.2 0 a12.1 12.1 0 1 0 -24.2 0zM1140.61 302.5 a12.1 12.1 0 1 0 24.2 0 a12.1 12.1 0 1 0 -24.2 0zM1140.61 423.5 a12.1 12.1 0 1 0 24.2 0 a12.1 12.1 0 1 0 -24.2 0zM1245.4 484 a12.1 12.1 0 1 0 24.2 0 a12.1 12.1 0 1 0 -24.2 0zM1245.4 605 a12.1 12.1 0 1 0 24.2 0 a12.1 12.1 0 1 0 -24.2 0zM1140.61 665.5 a12.1 12.1 0 1 0 24.2 0 a12.1 12.1 0 1 0 -24.2 0zM1245.4 -121 a12.1 12.1 0 1 0 24.2 0 a12.1 12.1 0 1 0 -24.2 0zM1350.2 -60.5 a12.1 12.1 0 1 0 24.2 0 a12.1 12.1 0 1 0 -24.2 0zM1350.2 60.5 a12.1 12.1 0 1 0 24.2 0 a12.1 12.1 0 1 0 -24.2 0zM1454.99 121 a12.1 12.1 0 1 0 24.2 0 a12.1 12.1 0 1 0 -24.2 0zM1454.99 242 a12.1 12.1 0 1 0 24.2 0 a12.1 12.1 0 1 0 -24.2 0zM1350.2 302.5 a12.1 12.1 0 1 0 24.2 0 a12.1 12.1 0 1 0 -24.2 0zM1350.2 423.5 a12.1 12.1 0 1 0 24.2 0 a12.1 12.1 0 1 0 -24.2 0zM1454.99 484 a12.1 12.1 0 1 0 24.2 0 a12.1 12.1 0 1 0 -24.2 0zM1454.99 605 a12.1 12.1 0 1 0 24.2 0 a12.1 12.1 0 1 0 -24.2 0zM1350.2 665.5 a12.1 12.1 0 1 0 24.2 0 a12.1 12.1 0 1 0 -24.2 0z" fill="#03305d"></path>
        <path d="M36.13 147.9L97.62 183.4L97.62 254.4L36.13 289.9L-25.36 254.4L-25.36 183.4zM97.62 254.4L159.11 289.9L159.11 360.9L97.62 396.4L36.13 360.9L36.13 289.9zM36.13 360.9L97.62 396.4L97.62 467.4L36.13 502.9L-25.36 467.4L-25.36 396.4zM159.11 -65.1L220.6 -29.6L220.6 41.4L159.11 76.9L97.62 41.4L97.62 -29.6zM282.09 147.9L343.58 183.4L343.58 254.4L282.09 289.9L220.6 254.4L220.6 183.4zM343.58 467.4L405.07 502.9L405.07 573.9L343.58 609.4L282.09 573.9L282.09 502.9zM405.07 -65.1L466.56 -29.6L466.56 41.4L405.07 76.9L343.58 41.4L343.58 -29.6zM405.07 360.9L466.56 396.4L466.56 467.4L405.07 502.9L343.58 467.4L343.58 396.4zM466.56 467.4L528.05 502.9L528.05 573.9L466.56 609.4L405.07 573.9L405.07 502.9zM528.05 -65.1L589.54 -29.6L589.54 41.4L528.05 76.9L466.56 41.4L466.56 -29.6zM528.05 147.9L589.54 183.4L589.54 254.4L528.05 289.9L466.56 254.4L466.56 183.4zM528.05 360.9L589.54 396.4L589.54 467.4L528.05 502.9L466.56 467.4L466.56 396.4zM651.03 360.9L712.52 396.4L712.52 467.4L651.03 502.9L589.54 467.4L589.54 396.4zM774 -65.1L835.49 -29.6L835.49 41.4L774 76.9L712.52 41.4L712.52 -29.6zM774 147.9L835.49 183.4L835.49 254.4L774 289.9L712.52 254.4L712.52 183.4zM958.47 41.4L1019.96 76.9L1019.96 147.9L958.47 183.4L896.98 147.9L896.98 76.9zM896.98 360.9L958.47 396.4L958.47 467.4L896.98 502.9L835.49 467.4L835.49 396.4zM1081.45 467.4L1142.94 502.9L1142.94 573.9L1081.45 609.4L1019.96 573.9L1019.96 502.9zM1142.94 -65.1L1204.43 -29.6L1204.43 41.4L1142.94 76.9L1081.45 41.4L1081.45 -29.6zM1204.43 41.4L1265.92 76.9L1265.92 147.9L1204.43 183.4L1142.94 147.9L1142.94 76.9zM1204.43 254.4L1265.92 289.9L1265.92 360.9L1204.43 396.4L1142.94 360.9L1142.94 289.9zM1327.41 41.4L1388.9 76.9L1388.9 147.9L1327.41 183.4L1265.92 147.9L1265.92 76.9zM1265.92 147.9L1327.41 183.4L1327.41 254.4L1265.92 289.9L1204.43 254.4L1204.43 183.4zM1265.92 360.9L1327.41 396.4L1327.41 467.4L1265.92 502.9L1204.43 467.4L1204.43 396.4zM1388.9 -65.1L1450.39 -29.6L1450.39 41.4L1388.9 76.9L1327.41 41.4L1327.41 -29.6zM1388.9 147.9L1450.39 183.4L1450.39 254.4L1388.9 289.9L1327.41 254.4L1327.41 183.4zM1450.39 254.4L1511.88 289.9L1511.88 360.9L1450.39 396.4L1388.9 360.9L1388.9 289.9zM1388.9 360.9L1450.39 396.4L1450.39 467.4L1388.9 502.9L1327.41 467.4L1327.41 396.4zM1450.39 467.4L1511.88 502.9L1511.88 573.9L1450.39 609.4L1388.9 573.9L1388.9 502.9z" stroke="rgba(6, 80, 156, 0.93)" stroke-width="2"></path>
    </g>
    <defs>
        <mask id="SvgjsMask1009">
            <rect width="1440" height="560" fill="#ffffff"></rect>
        </mask>
    </defs>
</svg>